# xmcd CD database file
#
# Track frame offsets:
#	150
#	20900
#	47228
#	66025
#	89343
#	110376
#	137252
#	156734
#	170846
#	191926
#	208948
#
# Disc length: 3091 seconds
#
# Revision: 0
# Processed by: cddbd v1.5.2PL0 Copyright (c) Steve Scherf et al.
# Submitted via: CDex 1.81
#
DISCID=a90c110b
DTITLE=Chiara Izzi - Motifs
DYEAR=2012
DGENRE=Jazz
TTITLE0=I get a kick out of you
TTITLE1=Travessia
TTITLE2=El Cacerolazo
TTITLE3=Another day
TTITLE4=It had to be you
TTITLE5=Cantabile
TTITLE6=Segni del tempo
TTITLE7=My shining hour
TTITLE8=Il Pescatore
TTITLE9=Stockholm sweetnin'
TTITLE10=Deep in a dream
EXTD=YEAR: 2012
EXTT0=
EXTT1=
EXTT2=
EXTT3=
EXTT4=
EXTT5=
EXTT6=
EXTT7=
EXTT8=
EXTT9=
EXTT10=
PLAYORDER=
